<svg version="1.2" xmlns="http://www.w3.org/2000/svg" viewBox="0 0 692 692" width="32" height="32">
	<defs>
		<clipPath clipPathUnits="userSpaceOnUse" id="cp1">
			<path d="m346.36 535.97l-158.71-91.63v-183.27l158.71-91.63 158.71 91.63v148.1l-113.39-41.48 38.67 119.78z"/>
		</clipPath>
	</defs>
	<style>
		tspan { white-space:pre } 
		.s0 { fill: none;stroke: #063432;stroke-linecap: round;stroke-linejoin: round;stroke-width: 24 } 
		.s1 { fill: none;stroke: #063432;stroke-linecap: round;stroke-linejoin: round;stroke-width: 18 } 
		.s2 { fill: #063432;stroke: #063432;stroke-linecap: round;stroke-linejoin: round;stroke-width: 24 } 
		.s3 { fill: none;stroke: #ffffff;stroke-linecap: round;stroke-linejoin: round;stroke-width: 18 } 
		.s4 { fill: #00ff00 } 
		.s5 { fill: #e5ac3d } 
	</style>
	<path id="Shape 1" fill-rule="evenodd" class="s0" d="m457.99 582.66l-111.63 63.75-254.36-146.85v-293.71l254.36-146.85 254.35 146.85 0.29 233.15"/>
	<path id="Shape 2" fill-rule="evenodd" class="s1" d="m97.34 210.28l2.51-4.32 244.17 143.14-2.51 4.32z"/>
	<path id="Shape 3" fill-rule="evenodd" class="s1" d="m96.39 500.42l-2.52-4.32 501.62-291.61 2.51 4.33z"/>
	<path id="Shape 4" fill-rule="evenodd" class="s1" d="m343.5 64.63h5v571.12h-5z"/>
	<g clip-path="url(#cp1)">
		<path id="Shape 1 copy" fill-rule="evenodd" class="s2" d="m346.36 535.97l-158.71-91.63v-183.27l158.71-91.63 158.71 91.63v148.1l-113.39-41.48 38.67 119.78z"/>
		<path id="Shape 5" fill-rule="evenodd" class="s3" d="m597.01 202.98l2.49 4.33-252.25 145.05-2.5-4.34z"/>
		<path id="Shape 6" fill-rule="evenodd" class="s3" d="m93.92 211.84l2.42-4.37 250.87 139-2.42 4.37z"/>
		<path id="Shape 7" fill-rule="evenodd" class="s3" d="m348.5 640.28h-5v-294.62h5z"/>
		<path id="Shape 7" class="s3" d="m348.5 640.28h-5v-294.62h5zm-2.5-293.28l-246-137 255-139 243 139z"/>
		<path id="Shape 8" class="s4" d="m344 342l-247-137 246-142 246 142z"/>
	</g>
	<path id="Shape 10" class="s5" d="m428.29 423.35l65.27 184.51c2.15 6.07 8.8 9.2 14.81 7.08 3.13-1.11 5.69-3.53 6.93-6.65l24.42-61.55 49.35 47.65c6.71 6.48 17.38 6.28 23.84-0.43 6.46-6.7 6.26-17.38-0.44-23.86l-48.2-46.6 58.7-20.77c6.06-2.14 9.24-8.81 7.09-14.88-1.11-3.14-3.5-5.65-6.58-6.91l-179.05-72.98c-2.81-1.14-5.86-1.23-8.69-0.23-6.37 2.25-9.7 9.25-7.45 15.62z"/>
</svg>