<svg version="1.2" xmlns="http://www.w3.org/2000/svg" viewBox="0 0 256 256" width="256" height="256"><defs><clipPath clipPathUnits="userSpaceOnUse" id="cp1"><path d="m128.13 198.28l-58.71-33.9v-67.8l58.71-33.9 58.72 33.9v54.79l-41.95-15.35 14.3 44.32z"/></clipPath></defs><style>.a{fill:#fff}.b{fill:none;stroke:#063432;stroke-linecap:round;stroke-linejoin:round;stroke-width:8.9}.c{fill:none;stroke:#063432;stroke-linecap:round;stroke-linejoin:round;stroke-width:6.7}.d{fill:#063432;stroke:#063432;stroke-linecap:round;stroke-linejoin:round;stroke-width:8.9}.e{fill:none;stroke:#fff;stroke-linecap:round;stroke-linejoin:round;stroke-width:6.7}.f{fill:#0f0}.g{fill:#e5ac3d}</style><path fill-rule="evenodd" class="a" d="m50 4h156c25.4 0 46 20.6 46 46v156c0 25.4-20.6 46-46 46h-156c-25.4 0-46-20.6-46-46v-156c0-25.4 20.6-46 46-46z"/><path fill-rule="evenodd" class="b" d="m169.4 215.6l-41.3 23.5-94.1-54.3v-108.6l94.1-54.4 94.1 54.4 0.1 86.2"/><path fill-rule="evenodd" class="c" d="m36 77.8l0.9-1.6 90.4 52.9-1 1.6z"/><path fill-rule="evenodd" class="c" d="m35.7 185.1l-1-1.6 185.6-107.9 0.9 1.7z"/><path fill-rule="evenodd" class="c" d="m127.1 23.9h1.8v211.3h-1.8z"/><g clip-path="url(#cp1)"><path fill-rule="evenodd" class="d" d="m128.1 198.3l-58.7-33.9v-67.8l58.7-33.9 58.7 33.9v54.8l-41.9-15.4 14.3 44.3z"/><path fill-rule="evenodd" class="e" d="m220.9 75.1l0.9 1.6-93.3 53.7-1-1.7z"/><path fill-rule="evenodd" class="e" d="m34.7 78.4l0.9-1.6 92.8 51.4-0.8 1.6z"/><path fill-rule="evenodd" class="e" d="m128.9 236.9h-1.8v-109h1.8z"/><path class="e" d="m128.9 236.9h-1.8v-109h1.8zm-0.9-108.5l-91-50.7 94.3-51.4 89.9 51.4z"/><path class="f" d="m127.3 126.5l-91.4-50.7 91-52.5 91 52.5z"/></g><path class="g" d="m158.4 156.6l24.2 68.3c0.8 2.2 3.2 3.4 5.5 2.6 1.1-0.4 2.1-1.3 2.5-2.5l9.1-22.7 18.2 17.6c2.5 2.4 6.5 2.3 8.8-0.2 2.4-2.4 2.4-6.4-0.1-8.8l-17.9-17.2 21.8-7.7c2.2-0.8 3.4-3.3 2.6-5.5-0.4-1.2-1.3-2.1-2.4-2.6l-66.3-27c-1-0.4-2.2-0.4-3.2-0.1-2.4 0.9-3.6 3.5-2.8 5.8z"/></svg>