<svg version="1.2" xmlns="http://www.w3.org/2000/svg" viewBox="0 0 32 32" width="32" height="32"><defs><clipPath clipPathUnits="userSpaceOnUse" id="cp1"><path d="m16.02 24.78l-7.34-4.23v-8.48l7.34-4.23 7.34 4.23v6.85l-5.25-1.92 1.79 5.54z"/></clipPath></defs><style>.a{fill:#fff}.b{fill:none;stroke:#063432;stroke-linecap:round;stroke-linejoin:round;stroke-width:1.1}.c{fill:none;stroke:#063432;stroke-linecap:round;stroke-linejoin:round;stroke-width:.8}.d{fill:#063432;stroke:#063432;stroke-linecap:round;stroke-linejoin:round;stroke-width:1.1}.e{fill:none;stroke:#fff;stroke-linecap:round;stroke-linejoin:round;stroke-width:.8}.f{fill:#0f0}.g{fill:#e5ac3d}</style><path fill-rule="evenodd" class="a" d="m7 0h18c3.9 0 7 3.1 7 7v18c0 3.9-3.1 7-7 7h-18c-3.9 0-7-3.1-7-7v-18c0-3.9 3.1-7 7-7z"/><path fill-rule="evenodd" class="b" d="m21.2 26.9l-5.2 3-11.7-6.8v-13.6l11.7-6.8 11.8 6.8v10.8"/><path fill-rule="evenodd" class="c" d="m4.5 9.7l0.1-0.2 11.3 6.6-0.1 0.2z"/><path fill-rule="evenodd" class="c" d="m4.5 23.1l-0.2-0.2 23.2-13.4 0.2 0.2z"/><path fill-rule="evenodd" class="c" d="m15.9 3h0.2v26.4h-0.2z"/><g clip-path="url(#cp1)"><path fill-rule="evenodd" class="d" d="m16 24.8l-7.3-4.3v-8.4l7.3-4.3 7.4 4.3v6.8l-5.3-1.9 1.8 5.5z"/><path fill-rule="evenodd" class="e" d="m27.6 9.4l0.1 0.2-11.6 6.7-0.2-0.2z"/><path fill-rule="evenodd" class="e" d="m4.3 9.8l0.2-0.2 11.6 6.4-0.2 0.2z"/><path fill-rule="evenodd" class="e" d="m16.1 29.6h-0.2v-13.6h0.2z"/><path class="e" d="m16.1 29.6h-0.2v-13.6h0.2zm-0.1-13.6l-11.4-6.3 11.8-6.4 11.3 6.4z"/><path class="f" d="m15.9 15.8l-11.4-6.3 11.4-6.6 11.3 6.6z"/></g><path class="g" d="m19.8 19.6l3 8.5c0.1 0.3 0.4 0.4 0.7 0.3q0.2 0 0.3-0.3l1.2-2.8 2.2 2.2c0.4 0.3 0.8 0.3 1.1 0 0.3-0.3 0.3-0.8 0-1.1l-2.2-2.2 2.7-1c0.3-0.1 0.4-0.4 0.3-0.6q0-0.3-0.3-0.4l-8.2-3.3q-0.2-0.1-0.5 0c-0.2 0.1-0.4 0.4-0.3 0.7z"/></svg>